<svg xmlns="http://www.w3.org/2000/svg" viewBox="0 0 512 512" width="512" height="512">
<!-- The libelli mark, as outlines rather than stroked paths: a trace of the
     supplied artwork — the wordmark, and the dragonfly the name is a pun on,
     libellula — so the geometry is machine-made and not meant to be
     hand-edited. This file, icon-maskable.svg and logo.svg are the masters;
     the PNGs beside them are rendered from these. -->
	<rect width="512" height="512" rx="64" fill="#fff" />
	<path fill="#111" fill-rule="evenodd" d="M153.3 130.2C153.9 130.2 157.7 130 158.9 130.2C160.1 130.5 164.5 131.8 165.7 132.7C167 133.6 170.6 138.1 171.3 139.5C172 140.9 173 145.3 173.2 146.9C173.3 148.5 173.3 153.7 173.2 155.6C173 157.5 171.9 163.7 171.3 166.1C170.7 168.5 167.8 177.5 167 179.8C166.1 182 163.1 187.4 162.6 188.4C162.2 189.5 163.4 188.5 162.6 190.3C161.8 192 155.5 204.1 154.6 205.8C153.6 207.4 153.6 205.9 153.3 206.4C153.1 206.8 152.8 209 152.1 210.1C151.4 211.2 147.1 216.5 146.5 217.5C145.9 218.5 146.2 219.6 145.9 220C145.7 220.4 144.6 220.4 144.1 221.2C143.5 222 140.9 227.2 140.3 228C139.8 228.9 138.7 229 138.5 229.3C138.3 229.5 138.8 230 138.5 230.5C138.1 231 135.1 233.7 134.8 234.2C134.4 234.7 134.9 235.2 134.8 235.5C134.6 235.7 133.3 236.2 132.9 236.7C132.5 237.2 132.2 239 131 240.4C129.9 241.9 122.1 249.8 121.1 251C120.2 252.1 123 250.2 121.1 252.2C119.3 254.2 104.5 268.9 102.6 270.8C100.6 272.6 101.6 270.6 101.3 270.8C101 271 99.7 271.1 99.5 272.6C99.3 274.1 99.2 283.3 99.5 285.6C99.7 288 101.3 294.5 101.9 296.2C102.6 297.8 105.3 301.5 106.3 302.3C107.3 303.2 110.7 304.6 111.9 304.8C113 305.1 116.6 305.1 118 304.8C119.5 304.5 124.7 302.5 126.1 301.7C127.5 300.9 131 297.3 131.7 296.8C132.3 296.3 131.6 298.1 132.9 296.8C134.2 295.5 143.5 285.2 144.7 283.8C145.8 282.3 144.5 282.8 144.7 282.5C144.9 282.3 146.3 281.5 146.5 281.3C146.7 281 146.3 280.3 146.5 280.1C146.7 279.8 148.1 279.3 148.4 278.8C148.7 278.4 149.3 276.2 149.6 275.7C149.9 275.3 151.3 274.7 151.5 274.5C151.7 274.2 151.1 273.8 151.5 273.2C151.9 272.7 154.6 269.9 155.2 268.9C155.8 267.9 157.2 264.1 157.7 263.3C158.2 262.5 159.8 261.5 160.1 260.9C160.5 260.2 161.1 257.6 161.4 257.1C161.6 256.7 161.4 258.9 162.6 256.5C163.9 254.2 172.7 236.1 173.8 233.6C174.9 231.1 173.2 233.3 173.8 231.8C174.4 230.2 179.3 219.9 180 218.1C180.6 216.4 180.3 215.2 180.6 214.4C180.8 213.7 181.9 211.3 182.4 210.7C182.9 210.2 184.7 209 185.5 208.9C186.4 208.7 190.2 209 191.1 209.5C192 209.9 193.9 212.4 194.2 213.2C194.5 214 194.5 216.7 194.2 217.5C194 218.4 192.3 220.4 191.7 221.9C191.2 223.3 189.1 230.6 188.6 231.8C188.2 232.9 188.4 230.3 187.4 233C186.4 235.7 179.8 254.9 178.7 258.4C177.7 261.9 177.1 265.6 176.9 267.7C176.7 269.7 176.7 277.3 176.9 278.8C177.1 280.4 178.3 282.5 178.7 283.2C179.2 283.8 180.2 285.3 181.2 285.6C182.2 285.9 187.3 286.4 188.6 286.2C189.9 286.1 192.9 284.7 194.2 283.8C195.5 282.8 200.9 277.8 201.6 277C202.4 276.2 201 276.5 201.6 275.7C202.3 274.9 207.1 269.8 207.8 268.9C208.5 268 208.3 266.7 208.4 266.4C208.6 266.1 209.5 266.1 209.7 265.8C209.9 265.5 209.9 264 210.3 263.3C210.7 262.7 212.5 261.2 213.4 259.6C214.3 258 218.3 251.3 219.6 247.2C220.9 243.2 224.5 225.6 226.4 219.4C228.3 213.1 236.6 189 238.2 184.7C239.8 180.4 241.9 177.4 242.5 176C243.1 174.7 243.4 171.8 243.7 171.1C244 170.3 245.3 169.4 245.6 168.6C245.9 167.9 246.4 164.6 246.8 163.7C247.3 162.7 249.6 159.4 249.9 158.7C250.2 158 249.1 158.7 249.9 156.8C250.8 155 257.7 142 258.6 140.1C259.5 138.3 258.3 139 258.6 138.3C258.8 137.6 260.5 134.1 261.1 133.3C261.6 132.6 263.2 131 264.2 130.8C265.2 130.7 270.1 131.2 271 131.5C271.8 131.7 272.6 132.6 272.8 133.3C273.1 134.1 274.5 136.2 273.5 138.9C272.4 141.6 263.4 158.2 262.3 160.6C261.2 162.9 262.8 161.3 262.3 162.4C261.8 163.5 257.9 170.6 257.4 171.7C256.9 172.8 257.5 173.1 257.4 173.6C257.2 174 255.7 175.6 255.5 176C255.3 176.5 256.1 176.3 255.5 177.9C254.9 179.4 250 189.8 249.3 191.5C248.6 193.3 248.9 194.7 248.7 195.2C248.5 195.7 248.6 193.3 247.5 196.5C246.3 199.7 239 222.3 237.5 227.4C236.1 232.6 233.6 243.5 233.2 247.9C232.8 252.3 232.8 268 233.2 271.4C233.6 274.7 236.6 279.9 237.5 281.3C238.5 282.7 241.6 284.5 242.5 285C243.4 285.5 245.1 286.1 246.2 286.2C247.3 286.4 252.5 286.4 253.6 286.2C254.8 286.1 257 285.4 258 285C259 284.6 262.9 282.3 263.5 281.9C264.2 281.5 264 280.8 264.2 280.7C264.4 280.6 264.5 281.5 265.4 280.7C266.3 279.8 271.8 274.4 273.5 272C275.1 269.7 280.5 259.7 281.5 257.1C282.6 254.5 285.1 247.4 284 246C282.9 244.6 272.4 243.8 270.4 242.9C268.3 242 264.5 238.6 263.5 237.3C262.6 236.1 260.8 232.1 260.5 230.5C260.1 229 260.2 223.3 260.5 221.9C260.7 220.4 262.2 217.3 262.9 216.3C263.6 215.3 266.5 212.6 267.3 211.9C268.1 211.3 269.7 210.4 271 210.1C272.2 209.8 278.1 208.8 279.6 208.9C281.2 208.9 285.6 210.3 286.5 210.7C287.3 211.1 288 212.4 288.3 212.6C288.6 212.8 288.9 212 289.6 212.6C290.2 213.1 293.8 217 294.5 218.1C295.3 219.3 296.7 223.4 297 224.3C297.2 225.3 296.9 226.9 297 227.4C297.1 227.9 298 229.1 298.2 229.3C298.5 229.5 297.4 230.2 299.5 229.3C301.6 228.4 317.2 221.1 319.3 220C321.3 218.9 319.3 219.1 319.9 218.8C320.5 218.5 324.3 217.2 324.8 216.9C325.4 216.6 324.8 216 325.5 215.7C326.1 215.3 331 213.6 331.7 213.2C332.3 212.8 330.5 212.9 332.3 211.9C334.1 211 347.7 204.1 349.6 203.3C351.5 202.4 351 203.5 351.5 203.3C351.9 203.1 353.5 201.6 353.9 201.4C354.4 201.2 355.5 201.5 355.8 201.4C356.1 201.3 355.7 200.7 357 200.2C358.4 199.6 366.5 196.7 369.4 195.9C372.3 195 382.3 192.6 386.1 192.1C390 191.7 404 191.3 407.8 191.5C411.7 191.8 421.1 193.6 424.5 194.6C427.9 195.7 440.1 201.2 441.9 202C443.7 202.9 442.1 203 442.5 203.3C442.9 203.5 445.1 204.1 445.6 204.5C446.1 205 447.3 206.9 447.4 207.6C447.6 208.3 447.6 210.7 447.4 211.3C447.3 211.9 446.6 213.4 446.2 213.8C445.8 214.2 444.5 215.5 443.7 215.7C442.9 215.9 439 215.9 438.2 215.7C437.3 215.4 435.7 213.6 435.1 213.2C434.4 212.8 431.8 212.2 431.3 211.9C430.9 211.7 431.9 211.3 430.7 210.7C429.5 210.2 422.1 207.1 419.6 206.4C417 205.7 407.9 204.1 405.3 203.9C402.7 203.7 396.4 203.7 393.6 203.9C390.8 204.1 381.2 205.4 377.5 206.4C373.8 207.4 363.2 210.6 356.4 213.8C349.7 217 315.7 235.7 310 238.6C304.2 241.4 300.1 241.7 298.8 242.3C297.5 242.8 297.3 243 297 244.1C296.7 245.3 296.3 251.8 295.7 254.1C295.2 256.3 292.1 264.7 291.4 266.4C290.7 268.2 289.3 270.8 288.9 271.4C288.6 271.9 287.9 271.7 287.7 272C287.5 272.3 287.5 273.8 287.1 274.5C286.6 275.2 283.7 278.3 283.4 278.8C283 279.4 284.5 278.8 283.4 280.1C282.2 281.3 274.2 289.6 272.2 291.2C270.2 292.8 265 295.5 263.5 296.2C262.1 296.8 260 297.8 258 298C256 298.3 245.7 298.7 243.7 298.6C241.8 298.6 240 297.9 238.8 297.4C237.6 296.9 233.3 294.8 232 293.7C230.6 292.6 226.1 287.5 225.2 286.2C224.2 285 223.2 282.7 222.7 281.3C222.2 279.9 220.6 272.9 220.2 272C219.8 271.1 219.6 271.7 219 272.6C218.4 273.6 214.8 280.2 214 281.3C213.3 282.3 211.8 282.8 211.5 283.2C211.3 283.5 212.2 283.6 211.5 284.4C210.9 285.2 205.5 290.5 204.7 291.2C203.9 291.9 203.7 291 203.5 291.2C203.2 291.4 203.2 292.4 202.3 293.1C201.3 293.7 195.5 296.8 194.2 297.4C192.9 298 190.7 298.5 189.2 298.6C187.8 298.8 181.7 299 180 298.6C178.2 298.3 173.2 295.8 171.9 294.9C170.6 294 167.7 290.5 167 289.3C166.2 288.2 164.7 284 164.5 283.2C164.2 282.3 164.7 281.1 164.5 280.7C164.3 280.2 163.1 278.4 162.6 278.8C162.1 279.2 160 283.8 159.5 284.4C159.1 285 158.4 284.8 158.3 285C158.2 285.2 158.8 285.5 158.3 286.2C157.7 287 153.3 291.7 152.7 292.4C152.2 293.2 154.3 292 152.7 293.7C151.2 295.4 139.9 307 137.2 309.2C134.6 311.3 127.9 314.5 126.1 315.3C124.3 316.2 121.3 317.1 119.3 317.2C117.3 317.3 108.3 317 106.3 316.6C104.2 316.2 100.3 314.1 98.9 312.9C97.4 311.6 92.5 306.1 91.4 304.2C90.3 302.3 88.3 296.5 87.7 294.3C87.1 292.1 87.3 283.2 85.8 282.5C84.4 281.9 75.2 286.9 73.5 287.5C71.7 288 69.4 288.4 68.5 288.1C67.6 287.9 64.7 285.9 64.2 285C63.7 284.1 63.4 279.7 63.6 278.8C63.7 277.9 64.7 276.3 66 275.7C67.4 275.1 75.1 273.5 77.2 272.6C79.2 271.8 85.3 269.2 86.5 267.1C87.6 264.9 88.6 253.4 88.9 251.6C89.3 249.8 89.9 250.3 90.2 249.1C90.4 247.9 90.9 242.2 91.4 239.8C91.9 237.4 94 228.9 95.1 225C96.3 221 102.3 202.8 103.2 200.2C104.1 197.6 104.2 199.4 104.4 198.9C104.6 198.5 104.7 196.2 105 195.2C105.4 194.3 107.7 190.7 108.1 189.7C108.6 188.6 108.9 185.8 109.4 184.7C109.9 183.6 112.7 179.3 113.1 178.5C113.5 177.7 112 178.8 113.1 176.7C114.1 174.5 122.4 158.9 123.6 156.8C124.8 154.8 124.2 157.2 124.9 156.2C125.5 155.3 129.1 148.5 129.8 147.6C130.5 146.6 131.5 146.6 131.7 146.3C131.9 146.1 131.4 145.4 131.7 145.1C131.9 144.8 133.9 143.5 134.1 143.2C134.4 142.9 133.2 142.9 134.1 142C135.1 141.1 141.8 135 143.4 133.9C145 132.8 149.3 131.1 150.2 130.8C151.2 130.5 153 130.9 153.3 130.8C153.6 130.8 152.8 130.3 153.3 130.2ZM155.2 142.6C154.5 142.9 150.4 144.1 149 145.1C147.6 146.1 142.3 151.6 141.6 152.5C140.8 153.4 141.8 153.5 141.6 153.7C141.4 154 139.9 154.7 139.7 155C139.5 155.2 140.1 155.7 139.7 156.2C139.3 156.8 136.4 159.9 136 160.6C135.6 161.2 135.6 162.7 135.4 163C135.2 163.3 134.4 163.2 134.1 163.7C133.9 164.1 133.2 166.9 132.9 167.4C132.7 167.8 132.6 166.3 131.7 168C130.7 169.7 124.4 182.3 123.6 184.1C122.8 185.9 124.2 184.6 123.6 185.9C123.1 187.2 118.7 195.6 118 197.1C117.4 198.6 117.6 200.3 117.4 200.8C117.2 201.3 116.4 201.5 116.2 202C116 202.5 115.8 205.3 115.6 205.8C115.4 206.3 114.9 205.6 114.3 207C113.8 208.4 111.2 215.8 110 220C108.8 224.2 103.2 245.9 102.6 249.1C101.9 252.3 101.9 253.1 103.2 252.2C104.5 251.3 114.3 241.2 115.6 239.8C116.8 238.4 115 239.3 115.6 238.6C116.1 237.9 120.6 233.7 121.1 233C121.7 232.3 121 232 121.1 231.8C121.3 231.5 122.8 230.8 123 230.5C123.2 230.3 122.3 230.3 123 229.3C123.7 228.3 129.7 221.6 130.4 220.6C131.2 219.6 129.7 220.5 130.4 219.4C131.2 218.3 137.1 210.7 137.9 209.5C138.7 208.2 138.3 207.3 138.5 207C138.7 206.7 139.5 206.7 139.7 206.4C139.9 206.1 140.1 204.2 140.3 203.9C140.5 203.6 141.4 203.6 141.6 203.3C141.8 203 142 201.1 142.2 200.8C142.4 200.5 143.1 200.9 143.4 200.2C143.8 199.5 145.5 194.7 145.9 194C146.3 193.3 146.7 194.1 147.1 193.4C147.6 192.7 149.9 188 150.2 187.2C150.6 186.4 150 185.9 150.2 185.3C150.5 184.8 152.3 182.7 152.7 181.6C153.2 180.6 154.3 175.6 154.6 174.8C154.9 174 155.3 175.3 155.8 173.6C156.4 171.8 159.7 160.1 160.1 157.5C160.6 154.8 160.2 148.2 160.1 146.9C160.1 145.7 160 145.5 159.5 145.1C159.1 144.6 156.2 142.9 155.8 142.6C155.4 142.4 155.9 142.4 155.2 142.6ZM196.7 171.1C197.5 171.1 203.6 171.3 204.7 171.7C205.9 172.1 207.9 174.2 208.4 174.8C208.9 175.4 209.6 176.3 209.7 177.3C209.8 178.2 210.1 182.8 209.7 184.1C209.2 185.4 206.2 189.5 205.3 190.3C204.5 191.1 202.2 192 201 192.1C199.8 192.3 194.8 192 193.6 191.5C192.4 191.1 189.8 188.5 189.2 187.8C188.7 187.1 188.1 185.4 188 184.7C187.9 184 187.8 182 188 181C188.3 180 189.9 175.7 190.5 174.8C191 173.9 193 172.6 193.6 172.3C194.2 172 196.4 171.8 196.7 171.7C197 171.6 195.9 171.1 196.7 171.1ZM277.2 221.2C276.7 221.4 273.9 222.5 273.5 223.1C273 223.7 272.8 226.2 272.8 226.8C272.8 227.4 272.9 228.7 273.5 229.3C274 229.8 277.3 232.1 278.4 232.4C279.5 232.7 284 232.8 284.6 232.4C285.2 231.9 284.7 228.9 284.6 228C284.5 227.2 283.7 225 283.4 224.3C283 223.7 281.4 222.2 280.9 221.9C280.3 221.5 278.2 221.3 277.8 221.2C277.4 221.2 277.6 221.1 277.2 221.2ZM421.4 233C422.1 233 426.5 233.3 427.6 233.6C428.7 233.9 431.7 235.5 432.6 236.1C433.4 236.7 435.7 238.9 436.3 239.8C436.9 240.7 438.5 243.4 438.8 245.4C439.1 247.4 439.8 256.4 439.4 259.6C439 262.8 435.9 273.8 434.4 277.6C433 281.4 426.2 295.4 425.2 297.4C424.1 299.4 424.2 297.6 423.9 298C423.7 298.4 422.9 301.3 422.7 301.7C422.4 302.2 421.6 302 421.4 302.3C421.2 302.7 421 304.5 420.8 304.8C420.6 305.1 419.7 305.3 419.6 305.4C419.5 305.6 419.7 306.5 419.6 306.7C419.5 306.9 418.5 307.1 418.3 307.3C418.2 307.5 418.5 308.4 418.3 308.5C418.2 308.7 417.7 308.2 417.1 309.2C416.5 310.1 412.8 316.8 412.1 317.8C411.5 318.8 410.6 318.6 410.3 319.1C410 319.5 409.4 321.7 409.1 322.2C408.7 322.6 407.4 323.2 407.2 323.4C407 323.6 407.4 324.4 407.2 324.6C407 324.9 405.7 325.4 405.3 325.9C405 326.4 403.9 329 403.5 329.6C403 330.1 401.4 330.9 401 331.4C400.6 332 400.3 333.8 399.1 335.2C398 336.5 390.8 344 389.9 345.1C388.9 346.2 391.4 344.6 389.9 346.3C388.3 348 375.9 360.7 374.4 362.4C372.8 364.1 375.3 362.7 374.4 363.6C373.5 364.6 366 370.8 365.1 372.3C364.2 373.8 365 377.2 365.1 378.5C365.2 379.8 366 384 366.3 385.3C366.7 386.6 367.9 390.3 368.8 391.5C369.7 392.7 373.6 396.4 375 397.1C376.4 397.8 381.4 398.4 383 398.3C384.7 398.2 390.7 396.3 391.7 395.8C392.8 395.4 393.1 394.2 393.6 394C394 393.7 395.7 393.6 396 393.4C396.4 393.1 397 391.7 397.3 391.5C397.5 391.3 398.3 391.7 398.5 391.5C398.8 391.3 399.5 389.8 399.8 389.6C400 389.5 399.7 390.9 401 389.6C402.3 388.3 411.6 378.1 412.8 376.6C413.9 375.2 412 376.5 412.8 375.4C413.5 374.3 419.3 367 420.2 365.5C421.1 364 421.6 361.3 422.1 360.5C422.5 359.8 423.8 358.4 424.5 358.1C425.3 357.8 428.7 357.4 429.5 357.5C430.2 357.5 431.5 358.4 432 358.7C432.4 359 433.6 359.9 433.8 360.5C434.1 361.2 434.7 364.4 434.4 365.5C434.2 366.6 431.8 371 431.3 371.7C430.9 372.4 430.6 371.6 430.1 372.3C429.6 373.1 426.9 378.3 426.4 379.1C425.8 379.9 424.7 380.1 424.5 380.4C424.3 380.6 424.7 381.4 424.5 381.6C424.3 381.8 422.9 382.6 422.7 382.8C422.5 383.1 422.9 383.8 422.7 384.1C422.5 384.3 421 385.1 420.8 385.3C420.6 385.6 422 385.2 420.8 386.6C419.6 387.9 410.4 397.7 409.1 398.9C407.8 400.2 408.1 398.7 407.8 398.9C407.5 399.2 406.3 401.2 406 401.4C405.6 401.7 405 401.2 404.7 401.4C404.5 401.6 404 402.9 403.5 403.3C402.9 403.6 399.6 404.8 399.1 405.1C398.7 405.4 399.5 405.9 398.5 406.4C397.5 406.9 391.6 409.6 389.2 410.1C386.9 410.5 376.9 410.8 375 410.7C373.1 410.6 371.7 409.9 370.7 409.5C369.7 409 365.7 406.8 365.1 406.4C364.5 405.9 364.7 405.3 364.5 405.1C364.3 405 363.9 405.8 363.2 405.1C362.6 404.4 358.5 399.5 357.7 398.3C356.9 397.1 355.6 394.6 355.2 393.4C354.8 392.1 353.7 386.7 353.3 385.9C353 385.2 352.2 385.3 351.5 385.9C350.7 386.6 346.6 391.5 345.9 392.1C345.2 392.7 345 391.8 344.7 392.1C344.3 392.4 342.6 394.9 342.2 395.2C341.8 395.5 341.7 394.6 340.9 395.2C340.1 395.8 335.9 400.2 334.1 401.4C332.3 402.7 325.2 406.7 323 407.6C320.8 408.5 314.9 410.5 312.5 410.7C310 410.9 301.1 410.6 298.8 410.1C296.6 409.6 291.5 406.7 290.2 405.7C288.8 404.8 285.7 401.4 285.2 400.8C284.7 400.2 285.5 400.1 285.2 399.6C284.9 399.1 282.4 396.4 282.1 395.8C281.8 395.3 282.4 394.7 282.1 394C281.9 393.3 279.9 389.8 279.6 389C279.4 388.2 279.8 386.4 279.6 385.9C279.5 385.4 278.7 384.1 278.4 384.1C278.1 384.1 276.9 385.7 276.6 385.9C276.2 386.1 275.7 385.6 275.3 385.9C274.9 386.2 273.2 388.7 272.8 389C272.5 389.3 271.9 388.8 271.6 389C271.3 389.3 270.1 391.3 269.7 391.5C269.4 391.8 268.8 391.3 268.5 391.5C268.3 391.7 267.5 393.2 267.3 393.4C267 393.5 266.8 392.9 266 393.4C265.3 393.9 262.2 397 259.8 398.3C257.5 399.7 245.7 405.7 242.5 407C239.3 408.2 230.9 410.4 227.6 410.7C224.4 411 212.7 410.6 209.7 410.1C206.6 409.5 199.3 406.4 197.3 405.1C195.3 403.9 190.1 398.6 189.2 397.7C188.4 396.8 189.4 396.7 189.2 396.5C189.1 396.2 187.8 395.8 187.4 395.2C187 394.6 185.3 391.4 184.9 390.3C184.5 389.2 183.2 385.1 183.1 384.1C182.9 383.1 183.2 380.9 183.1 380.4C182.9 379.9 182.3 379.2 181.8 379.1C181.3 379.1 180.7 379.9 178.1 379.7C175.5 379.6 159.6 378.4 155.8 377.9C152 377.4 143.2 375.5 140.3 374.8C137.4 374 130.4 372 126.7 370.5C123.1 368.9 106.2 360.5 103.8 359.3C101.5 358.1 103.9 358.6 103.2 358.1C102.4 357.6 97.2 354.9 96.4 354.4C95.6 353.8 95.4 352.7 95.1 352.5C94.9 352.3 94.1 352.7 93.9 352.5C93.7 352.3 92.9 350.8 92.7 350.6C92.4 350.5 91.8 351 91.4 350.6C91.1 350.3 89.3 347.9 88.9 347.5C88.6 347.2 88.2 348 87.7 347.5C87.2 347.1 84.5 343.7 84 343.2C83.4 342.7 82.4 342.9 82.1 342.6C81.8 342.3 81 340.9 80.9 340.1C80.8 339.4 80.8 335.7 80.9 335.2C81 334.6 82 334.7 82.1 334.5C82.3 334.4 81.8 333.6 82.1 333.3C82.4 333 84.5 331.6 85.2 331.4C86 331.3 88.7 331 89.6 331.4C90.4 331.9 93.3 335.3 93.9 335.8C94.5 336.2 94.6 335.3 95.1 335.8C95.6 336.2 98.4 339.7 98.9 340.1C99.3 340.5 99.8 339.9 100.1 340.1C100.3 340.3 101.1 341.8 101.3 342C101.6 342.2 102.3 341.8 102.6 342C102.8 342.2 103.6 343.6 103.8 343.8C104.1 344 104.4 343.4 105 343.8C105.7 344.3 107.3 346.7 110 348.2C112.7 349.7 127.2 357 131.7 358.7C136.1 360.4 151 364.1 154.6 364.9C158.2 365.7 164.8 366.5 167.6 366.7C170.4 367 180.5 369 182.4 367.4C184.4 365.7 185.8 353.3 186.8 350.6C187.7 348 191.1 341.8 191.7 340.7C192.3 339.7 192.6 340.7 193 340.1C193.3 339.6 195 335.8 195.4 335.2C195.9 334.5 197.1 334.2 197.3 333.9C197.5 333.7 196.2 333.9 197.3 332.7C198.4 331.5 206.6 323.2 207.8 322.2C209 321.1 208.9 322.3 209.1 322.2C209.2 322 209.5 321 209.7 320.9C209.9 320.8 210.7 321 210.9 320.9C211.1 320.8 211.4 319.8 211.5 319.7C211.7 319.6 212.6 319.8 212.8 319.7C213 319.6 213.1 318.6 213.4 318.4C213.7 318.3 215.3 318.1 215.9 317.8C216.4 317.5 217.7 315.9 219 315.3C220.3 314.8 226.6 312.6 228.9 312.3C231.2 311.9 240.1 311.6 241.9 311.6C243.7 311.7 245.7 312.4 246.8 312.9C248 313.4 252.7 315.9 253.6 316.6C254.6 317.3 256.1 318.8 256.7 319.7C257.4 320.6 259.4 324.2 259.8 325.3C260.3 326.3 260.9 328.9 261.1 330.2C261.2 331.5 261.2 337 261.1 338.3C260.9 339.6 260.5 341.7 259.8 343.2C259.2 344.8 255.8 351.8 254.3 353.7C252.7 355.7 246.8 361.3 244.4 363C241.9 364.8 233.5 369.7 230.1 371.1C226.8 372.4 214.3 375.8 210.9 376.6C207.5 377.5 197.5 378.5 196.1 379.1C194.6 379.7 195.7 381.7 196.1 382.8C196.4 384 199.1 389.2 199.8 390.3C200.5 391.3 202 392.7 202.9 393.4C203.7 394 207.1 396 208.4 396.5C209.8 397 214.8 398.1 216.5 398.3C218.2 398.5 222.8 398.7 225.2 398.3C227.5 397.9 238.2 395.2 240 394.6C241.9 394 243.1 392.4 243.7 392.1C244.4 391.8 246.5 391.7 246.8 391.5C247.2 391.3 247 390.5 247.5 390.3C247.9 390 250.7 389.3 251.2 389C251.6 388.8 251.5 388 251.8 387.8C252.1 387.6 254 387.4 254.3 387.2C254.6 387 254.3 386.3 254.9 385.9C255.4 385.6 258.7 384.3 259.8 383.5C261 382.6 265.8 377.9 266.6 377.3C267.4 376.6 267.4 377.6 267.9 377.3C268.3 376.9 270.5 373.9 271 373.6C271.4 373.2 271.5 374.2 272.2 373.6C273 372.9 277.7 369.4 278.4 367.4C279.2 365.3 279.2 356.5 279.6 353.1C280.1 349.8 282.2 338.3 283.4 333.9C284.5 329.5 289.9 311.8 290.8 309.2C291.7 306.6 291.8 308.4 292 307.9C292.2 307.4 292 305.8 292.6 304.2C293.3 302.7 297.7 293.8 298.2 292.4C298.8 291.1 297.9 291.4 298.2 290.6C298.6 289.8 301.6 285.2 301.9 284.4C302.3 283.6 301.5 283.6 301.9 282.5C302.4 281.5 305.7 274.8 306.3 273.9C306.8 272.9 307.3 273.7 307.5 273.2C307.8 272.8 308.5 270 308.7 269.5C309 269.1 309.8 269.2 310 268.9C310.2 268.6 310.2 267.1 310.6 266.4C311 265.8 313.3 263.3 313.7 262.7C314.1 262.1 313.9 260.9 314.3 260.2C314.8 259.6 317.7 256.5 318 255.9C318.4 255.4 317.5 255.4 318 254.7C318.6 254 323.1 249.8 323.6 249.1C324.2 248.4 322.4 249 323.6 247.9C324.8 246.7 333.3 238.8 335.4 237.3C337.4 235.9 342.3 234 344 233.6C345.8 233.2 351.3 233.4 352.7 233.6C354.1 233.8 357 235.1 357.7 235.5C358.3 235.8 358.5 237 358.9 237.3C359.3 237.6 360.8 237.9 361.4 238.6C361.9 239.3 364 243.1 364.5 244.1C364.9 245.2 365.6 247.2 365.7 249.1C365.8 251 365.8 259.4 365.1 262.7C364.4 266 360.3 278.5 358.9 281.9C357.5 285.3 352.3 295.2 351.5 296.8C350.6 298.3 350.4 297.1 350.2 297.4C350 297.7 350 299.3 349.6 299.9C349.2 300.5 346.9 303 346.5 303.6C346.1 304.2 346.1 305.8 345.9 306.1C345.7 306.4 345 306.2 344.7 306.7C344.3 307.2 343.4 310.1 342.8 311C342.2 311.9 339.1 315 338.5 316C337.8 317 337 319.6 336 320.9C335 322.3 329.3 328.6 328.6 329.6C327.8 330.6 328.9 330.5 328.6 330.8C328.3 331.2 325.8 332.9 325.5 333.3C325.2 333.7 326.3 333.6 325.5 334.5C324.7 335.5 318.2 342.2 317.4 343.2C316.6 344.2 317.8 344 317.4 344.5C317 344.9 313.5 347.7 313.1 348.2C312.6 348.7 313.5 348.9 313.1 349.4C312.6 349.9 309.2 352.6 308.7 353.1C308.3 353.6 310.5 352.5 308.7 354.4C307 356.2 293.1 368.7 291.4 371.7C289.7 374.7 291.7 382 292 384.1C292.4 386.1 294.4 390.9 295.1 392.1C295.8 393.3 298.1 395.3 298.8 395.8C299.6 396.4 301.4 397.5 302.6 397.7C303.7 397.9 308.7 398.4 310 398.3C311.3 398.3 314.2 397.6 315.6 397.1C316.9 396.6 322.7 393.9 323.6 393.4C324.5 392.9 323.7 392.5 324.2 392.1C324.8 391.8 328.6 390.1 329.2 389.6C329.8 389.2 330.2 388 330.4 387.8C330.7 387.6 331.4 388 331.7 387.8C331.9 387.6 332.6 386.1 332.9 385.9C333.1 385.7 332.2 387.7 334.1 385.9C336.1 384.2 350 372.9 352.1 368.6C354.2 364.3 354.4 347.5 355.2 343.2C355.9 338.9 358.3 330 359.5 325.9C360.8 321.7 365.5 306.9 367.6 301.7C369.6 296.6 378.6 277.3 380 274.5C381.3 271.7 380.6 274.9 381.2 273.9C381.7 272.9 385 265.6 385.5 264.6C386.1 263.6 386.6 264.1 386.8 264C386.9 263.8 386.6 262.9 386.8 262.7C386.9 262.5 387.4 263 388 262.1C388.6 261.2 391.4 255.5 393 253.4C394.5 251.4 402.3 242.8 403.5 241.7C404.7 240.5 404.4 241.9 404.7 241.7C405 241.4 405.5 239.9 406.6 239.2C407.6 238.4 413.8 234.8 415.2 234.2C416.7 233.7 420.8 233.7 421.4 233.6C422.1 233.5 420.8 233 421.4 233ZM346.5 246C345.7 246.4 340.5 248.7 339.1 249.7C337.7 250.8 333 255.7 332.3 256.5C331.6 257.3 332.5 257.5 332.3 257.8C332.1 258 330.6 258.8 330.4 259C330.2 259.3 330.6 260 330.4 260.2C330.2 260.5 328.7 261.2 328.6 261.5C328.4 261.7 329 262.1 328.6 262.7C328.1 263.3 325 266.4 324.2 267.7C323.4 269 321 274.9 320.5 275.7C320 276.6 320.1 274.8 319.3 276.3C318.4 277.9 312.6 289.5 311.8 291.2C311.1 292.9 312 292.6 311.8 293.1C311.7 293.5 310.2 295.1 310 295.5C309.8 296 310.2 297 310 297.4C309.8 297.8 308.6 298.6 308.1 299.9C307.6 301.1 305.5 308.7 305 309.8C304.6 310.9 304.7 308.2 303.8 311C302.9 313.8 296.6 334.7 295.7 337.6C294.9 340.6 296 339.6 295.7 340.7C295.5 341.9 293.5 348.4 293.3 349.4C293.1 350.5 293.3 351.5 293.9 351.3C294.4 351 298.3 347.5 298.8 346.9C299.3 346.4 298.3 346.2 298.8 345.7C299.3 345.1 303.3 341.9 303.8 341.4C304.3 340.8 303.5 340.5 303.8 340.1C304.1 339.7 306.6 338 306.9 337.6C307.2 337.3 306.6 336.8 306.9 336.4C307.2 336 309.7 334.3 310 333.9C310.3 333.6 309.1 333.7 310 332.7C310.9 331.6 317.8 324.5 318.7 323.4C319.5 322.3 318.1 322.9 318.7 322.2C319.2 321.4 323.5 316.9 324.2 316C324.9 315 325.2 313.3 325.5 312.9C325.8 312.4 327.1 311.9 327.3 311.6C327.5 311.4 326.6 311.5 327.3 310.4C328.1 309.3 333.5 302.6 334.8 300.5C336.1 298.4 339.6 290.5 340.3 289.3C341 288.2 340.7 290.4 341.6 288.7C342.4 287.1 347.9 275.6 349 272.6C350.1 269.7 352.4 261.5 352.7 259C353 256.5 352.4 249.2 352.1 247.9C351.8 246.6 350.1 246.2 349.6 246C349.1 245.8 347.4 246 347.1 246C346.8 246 347.3 245.6 346.5 246ZM420.8 246C420.3 246.2 417 247.1 415.9 247.9C414.7 248.6 409.7 252.8 409.1 253.4C408.4 254.1 409.4 254.2 409.1 254.7C408.7 255.1 405.7 257.3 405.3 257.8C405 258.2 405.7 258.5 405.3 259C405 259.5 402.5 261.4 401.6 262.7C400.8 264 397.3 271 396.7 272C396 273 395.6 272.3 395.4 272.6C395.2 272.9 395 274.8 394.8 275.1C394.6 275.4 394.7 273.5 393.6 275.7C392.4 278 384.7 293.4 383 297.4C381.4 301.4 377.6 314 376.9 316C376.1 318 376.2 315.3 375.6 317.2C375.1 319.1 371.8 332.6 371.3 334.5C370.7 336.5 370.2 335.9 370 336.4C369.9 336.9 370.2 339 370 339.5C369.9 340 369.1 340.2 368.8 341.4C368.6 342.5 367.6 350.3 367.6 351.3C367.6 352.3 368.3 351.6 368.8 351.3C369.3 350.9 372.2 348 372.5 347.5C372.9 347.1 372.1 346.8 372.5 346.3C373 345.8 376.4 343.1 376.9 342.6C377.3 342.1 376.5 341.7 376.9 341.4C377.2 341 379.6 339.2 380 338.9C380.3 338.5 379.6 338.1 380 337.6C380.3 337.2 383.3 335 383.7 334.5C384 334.1 382.7 334.5 383.7 333.3C384.7 332.1 392.6 323.4 393.6 322.2C394.6 320.9 393.4 321.2 393.6 320.9C393.8 320.7 395.2 319.9 395.4 319.7C395.6 319.4 395.2 318.7 395.4 318.4C395.6 318.2 397.1 317.5 397.3 317.2C397.5 317 397.1 316.2 397.3 316C397.5 315.7 398.8 315.2 399.1 314.7C399.5 314.3 400.1 312.1 400.4 311.6C400.7 311.2 402.1 310.6 402.2 310.4C402.4 310.1 401.7 309.9 402.2 309.2C402.7 308.4 406.6 303.8 407.2 303C407.8 302.1 407.3 301.3 407.8 300.5C408.3 299.7 411.5 296 412.1 294.9C412.8 293.9 413.7 290.5 414 290C414.3 289.4 414.7 290.1 415.2 289.3C415.7 288.5 418.6 282.8 419 281.9C419.3 281 418.7 280.6 419 280.1C419.2 279.5 421.1 277.1 421.4 276.3C421.7 275.6 421.9 273.1 422.1 272.6C422.2 272.1 422.9 272.8 423.3 271.4C423.7 270 426.1 261.2 426.4 259C426.7 256.8 426.6 250.4 426.4 249.1C426.1 247.8 424.4 246.3 423.9 246C423.4 245.7 421.7 246 421.4 246C421.1 246 421.4 245.8 420.8 246ZM234.4 324C234 324.1 231.4 324.3 230.1 324.6C228.9 325 224.1 326.4 222.1 327.7C220 329 210.9 336.5 209.7 337.6C208.4 338.8 210 338.5 209.7 338.9C209.4 339.2 206.9 341 206.6 341.4C206.3 341.7 207 342 206.6 342.6C206.2 343.2 203.6 345.9 202.9 346.9C202.2 348 200.4 351.6 199.8 353.1C199.2 354.7 197 361.1 196.7 362.4C196.4 363.7 195.4 365.9 196.7 366.1C198 366.3 206.8 364.9 209.7 364.3C212.6 363.6 223.6 360.1 225.8 359.3C228 358.5 230.9 356.9 232 356.2C233 355.5 235.7 352.9 236.3 352.5C236.9 352.1 236.7 353.2 237.5 352.5C238.3 351.8 243.3 347.2 244.4 345.7C245.4 344.1 247.7 338.4 248.1 337C248.4 335.7 248.2 332.9 248.1 332.1C247.9 331.2 247.4 329.1 246.8 328.4C246.3 327.6 243.7 325.1 242.5 324.6C241.3 324.2 235.9 324.1 235.1 324C234.3 324 234.9 324 234.4 324ZM439.7 319.4C438.9 319.4 432.8 319.6 431.7 320C430.5 320.4 428.5 322.5 428 323.1C427.5 323.7 426.8 324.6 426.7 325.6C426.6 326.5 426.3 331.1 426.7 332.4C427.2 333.7 430.2 337.8 431.1 338.6C431.9 339.4 434.2 340.3 435.4 340.4C436.6 340.6 441.6 340.3 442.8 339.8C444 339.4 446.6 336.8 447.2 336.1C447.7 335.4 448.3 333.7 448.4 333C448.5 332.3 448.6 330.3 448.4 329.3C448.1 328.3 446.5 324 445.9 323.1C445.4 322.2 443.4 320.9 442.8 320.6C442.2 320.3 440 320.1 439.7 320C439.4 319.9 440.5 319.4 439.7 319.4ZM370 101.3C369.6 101.4 369 101.1 367.9 101.8C366.8 102.4 364.9 103.5 363.5 105.2C362.2 106.8 360.4 109.2 359.9 111.9C359.4 114.6 359.5 118.3 360.4 121.2C361.3 124.2 364.3 127.9 365.1 129.5C365.8 131.2 366.7 130.7 365.1 131.1C363.5 131.5 358 131.3 355.5 131.8C352.9 132.4 351.4 133.1 349.8 134.4C348.2 135.8 346.6 138 345.9 139.9C345.2 141.7 345 143.6 345.4 145.6C345.7 147.6 346.5 149.8 348 151.8C349.5 153.8 352.5 156.4 354.4 157.8C356.4 159.1 356.1 159.5 359.6 159.8C363.2 160.2 372.9 159.7 375.7 159.8C378.5 160 376.9 160.1 376.5 160.6C376 161.1 377.1 161.7 373.1 162.9C369.1 164.2 356.3 167 352.4 168.1C348.5 169.2 350.5 168.9 349.8 169.7C349.1 170.4 348.3 171.6 348 172.5C347.7 173.4 347.8 174.3 348 175.1C348.1 175.9 348.3 176.4 349 177.2C349.7 177.9 351.1 179.1 352.4 179.5C353.6 179.9 352.2 180.6 356.5 179.5C360.8 178.5 371.2 176 378.3 173.3C385.4 170.6 393.6 166.3 399 163.5C404.5 160.6 408.6 157.9 410.9 156.2C413.3 154.5 412.9 154.5 413.3 153.3C413.7 152.2 413.7 150.4 413.3 149.2C412.9 148 411.7 147 410.9 146.4C410.2 145.7 410 145.4 408.9 145.3C407.7 145.2 405.1 145.9 404.2 145.8C403.3 145.8 404.2 148.2 403.4 145.1C402.7 141.9 400.8 130.9 399.8 126.9C398.8 122.9 398.6 123.6 397.2 121.2C395.8 118.9 394.4 115.9 391.5 112.9C388.6 109.9 382.6 105.3 379.8 103.3C377 101.4 376.2 101.6 374.7 101.3C373.1 100.9 371.3 101.3 370.5 101.3C369.7 101.3 370.4 101.2 370 101.3ZM372.3 113.4C372.6 113.4 372.9 112.9 373.6 113.2C374.4 113.5 375 113.8 376.7 115.3C378.4 116.7 381.8 119.4 383.7 121.7C385.7 124.1 387.4 127.2 388.4 129.5C389.4 131.8 389.9 134.6 389.9 135.7C390 136.9 389.9 136.7 388.6 136.5C387.4 136.3 383.9 135.2 382.4 134.4C381 133.7 381.9 134.7 380.1 132.1C378.3 129.5 373.3 121.6 371.8 118.6C370.3 115.7 371.2 115.3 371.3 114.5C371.3 113.7 371.9 113.9 372.1 113.7C372.2 113.5 372.1 113.5 372.3 113.4ZM362 143C362.7 142.9 364.3 142.6 366.4 142.7C368.5 142.9 372.5 142.9 374.7 143.8C376.9 144.7 378.9 147.3 379.6 148.2C380.3 149 381.7 148.9 378.8 148.9C375.9 149 365.4 148.7 362.2 148.4C359 148.2 360.5 148 359.6 147.4C358.8 146.7 357.6 145.2 357.3 144.5C357 143.8 357.3 143.5 358.1 143.2C358.8 143 361.1 143.3 361.7 143.2C362.4 143.2 361.2 143.1 362 143Z" />
</svg>
